<?xml version="1.0" encoding="UTF-8"?>
<svg xmlns="http://www.w3.org/2000/svg" height="100%" width="100%">
   <g transform="translate(40, 350)">
      <text x="166" y="-320" text-anchor="middle" font-size="20px">1999</text>
      <line x1="20"
            x2="20"
            y1="0"
            y2="-320"
            stroke="black"
            stroke-width="1"/>
      <line x1="20"
            x2="332"
            y1="0"
            y2="0"
            stroke="black"
            stroke-width="1"/>
      <line x1="20"
            x2="332"
            y1="-75"
            y2="-75"
            stroke="black"
            opacity="0.5"
            stroke-dasharray="8 4"
            stroke-width="1"/>
      <line x1="20"
            x2="332"
            y1="-150"
            y2="-150"
            stroke="black"
            opacity="0.5"
            stroke-dasharray="8 4"
            stroke-width="1"/>
      <line x1="20"
            x2="332"
            y1="-225"
            y2="-225"
            stroke="black"
            opacity="0.5"
            stroke-dasharray="8 4"
            stroke-width="1"/>
      <line x1="20"
            x2="332"
            y1="-300"
            y2="-300"
            stroke="black"
            opacity="0.5"
            stroke-dasharray="8 4"
            stroke-width="1"/>
      <text x="10" y="0" text-anchor="end">0</text>
      <text x="10" y="-15" text-anchor="end">20</text>
      <text x="10" y="-35" text-anchor="end">40</text>
      <text x="10" y="-55" text-anchor="end">60</text>
      <text x="10" y="-75" text-anchor="end">80</text>
      <text x="10" y="-95" text-anchor="end">100</text>
      <text x="10" y="-115" text-anchor="end">120</text>
      <text x="10" y="-135" text-anchor="end">140</text>
      <text x="10" y="-155" text-anchor="end">160</text>
      <text x="10" y="-175" text-anchor="end">180</text>
      <text x="10" y="-195" text-anchor="end">200</text>
      <text x="10" y="-215" text-anchor="end">220</text>
      <text x="10" y="-235" text-anchor="end">240</text>
      <text x="10" y="-255" text-anchor="end">260</text>
      <text x="10" y="-275" text-anchor="end">280</text>
      <text x="10" y="-295" text-anchor="end">300</text>
      <rect x="48"
            y="-22"
            stroke="black"
            stroke-width=".5"
            fill="gray"
            width="30"
            height="22"/>
      <text x="63" y="20" text-anchor="middle" font-size="11px">aspect</text>
      <rect x="95"
            y="-131"
            stroke="black"
            stroke-width=".5"
            fill="gray"
            width="30"
            height="131"/>
      <text x="110" y="20" text-anchor="middle" font-size="11px">contraction</text>
      <rect x="142"
            y="-90"
            stroke="black"
            stroke-width=".5"
            fill="gray"
            width="30"
            height="90"/>
      <text x="157" y="20" text-anchor="middle" font-size="11px">deletion</text>
      <rect x="189"
            y="-284"
            stroke="black"
            stroke-width=".5"
            fill="gray"
            width="30"
            height="284"/>
      <text x="204" y="20" text-anchor="middle" font-size="11px">dropping</text>
      <rect x="236"
            y="-3"
            stroke="black"
            stroke-width=".5"
            fill="gray"
            width="30"
            height="3"/>
      <text x="251" y="20" text-anchor="middle" font-size="11px">negative</text>
      <rect x="283"
            y="-27"
            stroke="black"
            stroke-width=".5"
            fill="gray"
            width="30"
            height="27"/>
      <text x="298" y="20" text-anchor="middle" font-size="11px">tense</text>
   </g>
</svg>
