<?xml version="1.0" encoding="UTF-8"?>
<svg xmlns="http://www.w3.org/2000/svg" height="100%" width="100%">
   <g transform="translate(40, 450)">
      <text x="542" y="-420" text-anchor="middle" font-size="20px">B4.DA.$$</text>
      <line x1="20"
            x2="20"
            y1="0"
            y2="-420"
            stroke="black"
            stroke-width="1"/>
      <line x1="20"
            x2="1084"
            y1="0"
            y2="0"
            stroke="black"
            stroke-width="1"/>
      <line x1="20"
            x2="1084"
            y1="-100"
            y2="-100"
            stroke="black"
            opacity="0.5"
            stroke-dasharray="8 4"
            stroke-width="1"/>
      <line x1="20"
            x2="1084"
            y1="-200"
            y2="-200"
            stroke="black"
            opacity="0.5"
            stroke-dasharray="8 4"
            stroke-width="1"/>
      <line x1="20"
            x2="1084"
            y1="-300"
            y2="-300"
            stroke="black"
            opacity="0.5"
            stroke-dasharray="8 4"
            stroke-width="1"/>
      <line x1="20"
            x2="1084"
            y1="-400"
            y2="-400"
            stroke="black"
            opacity="0.5"
            stroke-dasharray="8 4"
            stroke-width="1"/>
      <text x="10" y="0" text-anchor="end">0</text>
      <text x="10" y="-15" text-anchor="end">10</text>
      <text x="10" y="-35" text-anchor="end">20</text>
      <text x="10" y="-55" text-anchor="end">30</text>
      <text x="10" y="-75" text-anchor="end">40</text>
      <text x="10" y="-95" text-anchor="end">50</text>
      <text x="10" y="-115" text-anchor="end">60</text>
      <text x="10" y="-135" text-anchor="end">70</text>
      <text x="10" y="-155" text-anchor="end">80</text>
      <text x="10" y="-175" text-anchor="end">90</text>
      <text x="10" y="-195" text-anchor="end">100</text>
      <text x="10" y="-215" text-anchor="end">110</text>
      <text x="10" y="-235" text-anchor="end">120</text>
      <text x="10" y="-255" text-anchor="end">130</text>
      <text x="10" y="-275" text-anchor="end">140</text>
      <text x="10" y="-295" text-anchor="end">150</text>
      <text x="10" y="-315" text-anchor="end">160</text>
      <text x="10" y="-335" text-anchor="end">170</text>
      <text x="10" y="-355" text-anchor="end">180</text>
      <text x="10" y="-375" text-anchor="end">190</text>
      <text x="10" y="-395" text-anchor="end">200</text>
      <rect x="48"
            y="-12"
            stroke="black"
            stroke-width=".5"
            fill="gray"
            width="30"
            height="12"/>
      <text x="63" y="20" text-anchor="middle" font-size="11px">alcohol</text>
      <rect x="95"
            y="-26"
            stroke="black"
            stroke-width=".5"
            fill="gray"
            width="30"
            height="26"/>
      <text x="110" y="20" text-anchor="middle" font-size="11px">criticism</text>
      <rect x="142"
            y="-10"
            stroke="black"
            stroke-width=".5"
            fill="gray"
            width="30"
            height="10"/>
      <text x="157" y="20" text-anchor="middle" font-size="11px">drugs</text>
      <rect x="189"
            y="-32"
            stroke="black"
            stroke-width=".5"
            fill="gray"
            width="30"
            height="32"/>
      <text x="204" y="20" text-anchor="middle" font-size="11px">fashion</text>
      <rect x="236"
            y="-92"
            stroke="black"
            stroke-width=".5"
            fill="gray"
            width="30"
            height="92"/>
      <text x="251" y="20" text-anchor="middle" font-size="11px">food</text>
      <rect x="283"
            y="-44"
            stroke="black"
            stroke-width=".5"
            fill="gray"
            width="30"
            height="44"/>
      <text x="298" y="20" text-anchor="middle" font-size="11px">geo</text>
      <rect x="330"
            y="-64"
            stroke="black"
            stroke-width=".5"
            fill="gray"
            width="30"
            height="64"/>
      <text x="345" y="20" text-anchor="middle" font-size="11px">guns</text>
      <rect x="377"
            y="-58"
            stroke="black"
            stroke-width=".5"
            fill="gray"
            width="30"
            height="58"/>
      <text x="392" y="20" text-anchor="middle" font-size="11px">haters</text>
      <rect x="424"
            y="-210"
            stroke="black"
            stroke-width=".5"
            fill="gray"
            width="30"
            height="210"/>
      <text x="439" y="20" text-anchor="middle" font-size="11px">hiphop</text>
      <rect x="471"
            y="-8"
            stroke="black"
            stroke-width=".5"
            fill="gray"
            width="30"
            height="8"/>
      <text x="486" y="20" text-anchor="middle" font-size="11px">history</text>
      <rect x="518"
            y="-158"
            stroke="black"
            stroke-width=".5"
            fill="gray"
            width="30"
            height="158"/>
      <text x="533" y="20" text-anchor="middle" font-size="11px">money</text>
      <rect x="565"
            y="-10"
            stroke="black"
            stroke-width=".5"
            fill="gray"
            width="30"
            height="10"/>
      <text x="580" y="20" text-anchor="middle" font-size="11px">oldschool</text>
      <rect x="612"
            y="-104"
            stroke="black"
            stroke-width=".5"
            fill="gray"
            width="30"
            height="104"/>
      <text x="627" y="20" text-anchor="middle" font-size="11px">popculture</text>
      <rect x="659"
            y="-24"
            stroke="black"
            stroke-width=".5"
            fill="gray"
            width="30"
            height="24"/>
      <text x="674" y="20" text-anchor="middle" font-size="11px">power</text>
      <rect x="706"
            y="-78"
            stroke="black"
            stroke-width=".5"
            fill="gray"
            width="30"
            height="78"/>
      <text x="721" y="20" text-anchor="middle" font-size="11px">religion</text>
      <rect x="753"
            y="-66"
            stroke="black"
            stroke-width=".5"
            fill="gray"
            width="30"
            height="66"/>
      <text x="768" y="20" text-anchor="middle" font-size="11px">sex</text>
      <rect x="800"
            y="-22"
            stroke="black"
            stroke-width=".5"
            fill="gray"
            width="30"
            height="22"/>
      <text x="815" y="20" text-anchor="middle" font-size="11px">sports</text>
      <rect x="847"
            y="-100"
            stroke="black"
            stroke-width=".5"
            fill="gray"
            width="30"
            height="100"/>
      <text x="862" y="20" text-anchor="middle" font-size="11px">struggle</text>
      <rect x="894"
            y="-104"
            stroke="black"
            stroke-width=".5"
            fill="gray"
            width="30"
            height="104"/>
      <text x="909" y="20" text-anchor="middle" font-size="11px">success</text>
      <rect x="941"
            y="-26"
            stroke="black"
            stroke-width=".5"
            fill="gray"
            width="30"
            height="26"/>
      <text x="956" y="20" text-anchor="middle" font-size="11px">violence</text>
      <rect x="988"
            y="-90"
            stroke="black"
            stroke-width=".5"
            fill="gray"
            width="30"
            height="90"/>
      <text x="1003" y="20" text-anchor="middle" font-size="11px">weed</text>
      <rect x="1035"
            y="-130"
            stroke="black"
            stroke-width=".5"
            fill="gray"
            width="30"
            height="130"/>
      <text x="1050" y="20" text-anchor="middle" font-size="11px">women</text>
   </g>
</svg>
