<?xml version="1.0" encoding="UTF-8"?>
<svg xmlns="http://www.w3.org/2000/svg" height="100%" width="100%">
   <g transform="translate(40, 450)">
      <text x="213" y="-420" text-anchor="middle" font-size="20px">Summer Knights</text>
      <line x1="20"
            x2="20"
            y1="0"
            y2="-420"
            stroke="black"
            stroke-width="1"/>
      <line x1="20"
            x2="426"
            y1="0"
            y2="0"
            stroke="black"
            stroke-width="1"/>
      <line x1="20"
            x2="426"
            y1="-100"
            y2="-100"
            stroke="black"
            opacity="0.5"
            stroke-dasharray="8 4"
            stroke-width="1"/>
      <line x1="20"
            x2="426"
            y1="-200"
            y2="-200"
            stroke="black"
            opacity="0.5"
            stroke-dasharray="8 4"
            stroke-width="1"/>
      <line x1="20"
            x2="426"
            y1="-300"
            y2="-300"
            stroke="black"
            opacity="0.5"
            stroke-dasharray="8 4"
            stroke-width="1"/>
      <line x1="20"
            x2="426"
            y1="-400"
            y2="-400"
            stroke="black"
            opacity="0.5"
            stroke-dasharray="8 4"
            stroke-width="1"/>
      <text x="10" y="0" text-anchor="end">0</text>
      <text x="10" y="-15" text-anchor="end">10</text>
      <text x="10" y="-35" text-anchor="end">20</text>
      <text x="10" y="-55" text-anchor="end">30</text>
      <text x="10" y="-75" text-anchor="end">40</text>
      <text x="10" y="-95" text-anchor="end">50</text>
      <text x="10" y="-115" text-anchor="end">60</text>
      <text x="10" y="-135" text-anchor="end">70</text>
      <text x="10" y="-155" text-anchor="end">80</text>
      <text x="10" y="-175" text-anchor="end">90</text>
      <text x="10" y="-195" text-anchor="end">100</text>
      <text x="10" y="-215" text-anchor="end">110</text>
      <text x="10" y="-235" text-anchor="end">120</text>
      <text x="10" y="-255" text-anchor="end">130</text>
      <text x="10" y="-275" text-anchor="end">140</text>
      <text x="10" y="-295" text-anchor="end">150</text>
      <text x="10" y="-315" text-anchor="end">160</text>
      <text x="10" y="-335" text-anchor="end">170</text>
      <text x="10" y="-355" text-anchor="end">180</text>
      <text x="10" y="-375" text-anchor="end">190</text>
      <text x="10" y="-395" text-anchor="end">200</text>
      <rect x="48"
            y="-40"
            stroke="black"
            stroke-width=".5"
            fill="gray"
            width="30"
            height="40"/>
      <text x="63" y="20" text-anchor="middle" font-size="11px">aspect</text>
      <rect x="95"
            y="-140"
            stroke="black"
            stroke-width=".5"
            fill="gray"
            width="30"
            height="140"/>
      <text x="110" y="20" text-anchor="middle" font-size="11px">contraction</text>
      <rect x="142"
            y="-248"
            stroke="black"
            stroke-width=".5"
            fill="gray"
            width="30"
            height="248"/>
      <text x="157" y="20" text-anchor="middle" font-size="11px">deletion</text>
      <rect x="189"
            y="-432"
            stroke="black"
            stroke-width=".5"
            fill="gray"
            width="30"
            height="432"/>
      <text x="204" y="20" text-anchor="middle" font-size="11px">dropping</text>
      <rect x="236"
            y="-16"
            stroke="black"
            stroke-width=".5"
            fill="gray"
            width="30"
            height="16"/>
      <text x="251" y="20" text-anchor="middle" font-size="11px">negative</text>
      <rect x="283"
            y="-64"
            stroke="black"
            stroke-width=".5"
            fill="gray"
            width="30"
            height="64"/>
      <text x="298" y="20" text-anchor="middle" font-size="11px">tense</text>
      <rect x="331"
            y="-22"
            stroke="black"
            stroke-width=".5"
            fill="gray"
            width="30"
            height="22"/>
      <text x="346" y="20" text-anchor="middle" font-size="11px">compound</text>
      <rect x="378"
            y="-26"
            stroke="black"
            stroke-width=".5"
            fill="gray"
            width="30"
            height="26"/>
      <text x="393" y="20" text-anchor="middle" font-size="11px">language</text>
   </g>
</svg>
