<?xml version="1.0" encoding="UTF-8"?>
<svg xmlns="http://www.w3.org/2000/svg" height="100%" width="100%">
   <g transform="translate(40, 350)">
      <text x="415" y="-320" text-anchor="middle">Summer Knights</text>
      <line x1="20"
            x2="20"
            y1="0"
            y2="-320"
            stroke="black"
            stroke-width="1"/>
      <line x1="20"
            x2="830"
            y1="0"
            y2="0"
            stroke="black"
            stroke-width="1"/>
      <line x1="20"
            x2="830"
            y1="-150"
            y2="-150"
            stroke="black"
            opacity="0.5"
            stroke-dasharray="8 4"
            stroke-width="1"/>
      <text x="10" y="5" text-anchor="end">0%</text>
      <text x="10" y="-145" text-anchor="end">50%</text>
      <text x="10" y="-295" text-anchor="end">100%</text>
      <rect x="52"
            y="-127500"
            stroke="black"
            stroke-width=".5"
            fill="blue"
            width="30"
            height="127500"/>
      <text x="67" y="20" text-anchor="middle">success</text>
      <rect x="102"
            y="-127500"
            stroke="black"
            stroke-width=".5"
            fill="blue"
            width="30"
            height="127500"/>
      <text x="117" y="20" text-anchor="middle">geo</text>
      <rect x="152"
            y="-127500"
            stroke="black"
            stroke-width=".5"
            fill="blue"
            width="30"
            height="127500"/>
      <text x="167" y="20" text-anchor="middle">struggle</text>
      <rect x="202"
            y="-127500"
            stroke="black"
            stroke-width=".5"
            fill="blue"
            width="30"
            height="127500"/>
      <text x="217" y="20" text-anchor="middle">weed</text>
      <rect x="252"
            y="-127500"
            stroke="black"
            stroke-width=".5"
            fill="blue"
            width="30"
            height="127500"/>
      <text x="267" y="20" text-anchor="middle">hiphop</text>
      <rect x="302"
            y="-127500"
            stroke="black"
            stroke-width=".5"
            fill="blue"
            width="30"
            height="127500"/>
      <text x="317" y="20" text-anchor="middle">women</text>
      <rect x="352"
            y="-127500"
            stroke="black"
            stroke-width=".5"
            fill="blue"
            width="30"
            height="127500"/>
      <text x="367" y="20" text-anchor="middle">popculture</text>
      <rect x="402"
            y="-127500"
            stroke="black"
            stroke-width=".5"
            fill="blue"
            width="30"
            height="127500"/>
      <text x="417" y="20" text-anchor="middle">money</text>
      <rect x="452"
            y="-127500"
            stroke="black"
            stroke-width=".5"
            fill="blue"
            width="30"
            height="127500"/>
      <text x="467" y="20" text-anchor="middle">guns</text>
      <rect x="502"
            y="-127500"
            stroke="black"
            stroke-width=".5"
            fill="blue"
            width="30"
            height="127500"/>
      <text x="517" y="20" text-anchor="middle">sports</text>
      <rect x="552"
            y="-127500"
            stroke="black"
            stroke-width=".5"
            fill="blue"
            width="30"
            height="127500"/>
      <text x="567" y="20" text-anchor="middle">fashion</text>
      <rect x="602"
            y="-127500"
            stroke="black"
            stroke-width=".5"
            fill="blue"
            width="30"
            height="127500"/>
      <text x="617" y="20" text-anchor="middle">compound</text>
      <rect x="652"
            y="-127500"
            stroke="black"
            stroke-width=".5"
            fill="blue"
            width="30"
            height="127500"/>
      <text x="667" y="20" text-anchor="middle">food</text>
      <rect x="702"
            y="-127500"
            stroke="black"
            stroke-width=".5"
            fill="blue"
            width="30"
            height="127500"/>
      <text x="717" y="20" text-anchor="middle">haters</text>
      <rect x="752"
            y="-127500"
            stroke="black"
            stroke-width=".5"
            fill="blue"
            width="30"
            height="127500"/>
      <text x="767" y="20" text-anchor="middle">alcohol</text>
      <rect x="802"
            y="-127500"
            stroke="black"
            stroke-width=".5"
            fill="blue"
            width="30"
            height="127500"/>
      <text x="817" y="20" text-anchor="middle">oldschool</text>
   </g>
</svg>
